<?xml version="1.0" encoding="UTF-8"?>
<!DOCTYPE svg PUBLIC "-//W3C//DTD SVG 1.1//EN" "http://www.w3.org/Graphics/SVG/1.1/DTD/svg11.dtd">
<svg xmlns="http://www.w3.org/2000/svg" version="1.1" width="512px" height="512px" style="shape-rendering:geometricPrecision; text-rendering:geometricPrecision; image-rendering:optimizeQuality; fill-rule:evenodd; clip-rule:evenodd" xmlns:xlink="http://www.w3.org/1999/xlink">
<g><path style="opacity:1" fill="#dedfde" d="M 232.5,-0.5 C 247.833,-0.5 263.167,-0.5 278.5,-0.5C 358.893,9.09801 422.393,46.7647 469,112.5C 492.821,149.131 506.987,189.131 511.5,232.5C 511.5,247.833 511.5,263.167 511.5,278.5C 501.902,358.893 464.235,422.393 398.5,469C 361.869,492.821 321.869,506.987 278.5,511.5C 189.833,511.5 101.167,511.5 12.5,511.5C 10.2314,510.024 7.89805,508.524 5.5,507C 3.24806,504.264 1.24806,501.431 -0.5,498.5C -0.5,409.833 -0.5,321.167 -0.5,232.5C 9.09756,152.108 46.7642,88.6077 112.5,42C 149.131,18.1794 189.131,4.01272 232.5,-0.5 Z M 254.5,39.5 C 330.3,41.6429 390.133,73.3095 434,134.5C 471.186,192.295 480.186,254.295 461,320.5C 436.833,390 390,436.833 320.5,461C 299.641,467.365 278.307,470.699 256.5,471C 184.167,471.5 111.834,471.667 39.5,471.5C 39.0618,392.822 39.5618,314.155 41,235.5C 48.9559,168.724 80.1226,115.891 134.5,77C 170.975,53.0508 210.975,40.5508 254.5,39.5 Z"/></g>
<g><path style="opacity:1" fill="#dedfde" d="M 121.5,198.5 C 210.834,198.333 300.167,198.5 389.5,199C 396.487,201.807 399.82,206.973 399.5,214.5C 399.82,222.027 396.487,227.193 389.5,230C 300.167,230.667 210.833,230.667 121.5,230C 114.513,227.193 111.18,222.027 111.5,214.5C 111.302,206.885 114.635,201.551 121.5,198.5 Z"/></g>
<g><path style="opacity:1" fill="#dedfde" d="M 121.5,262.5 C 168.168,262.333 214.835,262.5 261.5,263C 270.482,267.473 273.649,274.64 271,284.5C 269.167,289 266,292.167 261.5,294C 214.833,294.667 168.167,294.667 121.5,294C 114.513,291.193 111.18,286.027 111.5,278.5C 111.302,270.885 114.635,265.551 121.5,262.5 Z"/></g>
<g><path style="opacity:1" fill="#dedfde" d="M 117.5,328.5 C 143.835,328.333 170.169,328.5 196.5,329C 199.163,330.801 200.997,333.301 202,336.5C 203.397,344.231 202.397,351.564 199,358.5C 198.25,359.126 197.416,359.626 196.5,360C 170.167,360.667 143.833,360.667 117.5,360C 112.622,356.059 110.622,350.892 111.5,344.5C 110.763,338.001 112.763,332.667 117.5,328.5 Z"/></g>
</svg>
