<?xml version="1.0" encoding="UTF-8"?>
<!DOCTYPE svg PUBLIC "-//W3C//DTD SVG 1.1//EN" "http://www.w3.org/Graphics/SVG/1.1/DTD/svg11.dtd">
<svg xmlns="http://www.w3.org/2000/svg" version="1.1" width="512px" height="512px" style="shape-rendering:geometricPrecision; text-rendering:geometricPrecision; image-rendering:optimizeQuality; fill-rule:evenodd; clip-rule:evenodd" xmlns:xlink="http://www.w3.org/1999/xlink">
<g><path style="opacity:1" fill="#dedfde" d="M 232.5,-0.5 C 247.833,-0.5 263.167,-0.5 278.5,-0.5C 358.893,9.09801 422.393,46.7647 469,112.5C 492.821,149.131 506.987,189.131 511.5,232.5C 511.5,247.833 511.5,263.167 511.5,278.5C 501.902,358.893 464.235,422.393 398.5,469C 361.869,492.821 321.869,506.987 278.5,511.5C 189.833,511.5 101.167,511.5 12.5,511.5C 10.2314,510.024 7.89805,508.524 5.5,507C 3.24806,504.264 1.24806,501.431 -0.5,498.5C -0.5,409.833 -0.5,321.167 -0.5,232.5C 9.09756,152.108 46.7642,88.6077 112.5,42C 149.131,18.1794 189.131,4.01272 232.5,-0.5 Z M 254.5,39.5 C 330.3,41.6429 390.133,73.3095 434,134.5C 471.186,192.295 480.186,254.295 461,320.5C 436.833,390 390,436.833 320.5,461C 299.641,467.365 278.307,470.699 256.5,471C 184.167,471.5 111.834,471.667 39.5,471.5C 39.0618,392.822 39.5618,314.155 41,235.5C 48.9559,168.724 80.1226,115.891 134.5,77C 170.975,53.0508 210.975,40.5508 254.5,39.5 Z"/></g>
<g><path style="opacity:1" fill="#dedfde" d="M 238.5,145.5 C 260.732,142.871 281.732,146.705 301.5,157C 324.751,172.743 332.584,194.243 325,221.5C 321.614,230.61 316.948,238.943 311,246.5C 298.723,257.955 286.723,269.621 275,281.5C 272.34,285.814 270.673,290.481 270,295.5C 273.18,319.983 262.68,329.483 238.5,324C 235.063,322.895 232.563,320.728 231,317.5C 224.51,290.313 231.343,267.146 251.5,248C 261.276,241.224 270.109,233.39 278,224.5C 287.682,206.197 282.849,193.697 263.5,187C 251.447,184.121 240.113,185.788 229.5,192C 224.123,197.708 219.123,203.708 214.5,210C 202.698,214.842 193.198,212.008 186,201.5C 182.639,185.707 187.139,172.541 199.5,162C 211.18,153.154 224.18,147.654 238.5,145.5 Z"/></g>
<g><path style="opacity:1" fill="#dedfde" d="M 242.5,348.5 C 258.665,346.66 269.498,353.326 275,368.5C 277.703,385.11 271.203,396.277 255.5,402C 230.428,403.26 219.595,391.427 223,366.5C 226.545,357.116 233.045,351.116 242.5,348.5 Z"/></g>
</svg>
