<?xml version="1.0" encoding="UTF-8"?>
<!DOCTYPE svg PUBLIC "-//W3C//DTD SVG 1.1//EN" "http://www.w3.org/Graphics/SVG/1.1/DTD/svg11.dtd">
<svg xmlns="http://www.w3.org/2000/svg" version="1.1" width="512px" height="512px" style="shape-rendering:geometricPrecision; text-rendering:geometricPrecision; image-rendering:optimizeQuality; fill-rule:evenodd; clip-rule:evenodd" xmlns:xlink="http://www.w3.org/1999/xlink">
<g><path style="opacity:1" fill="#dedfde" d="M 228.5,15.5 C 329.83,8.91191 407.33,48.2452 461,133.5C 495.144,196.471 501.144,262.137 479,330.5C 471.834,349.165 462.834,366.832 452,383.5C 441.957,393.729 431.624,394.062 421,384.5C 417.699,378.922 416.699,372.922 418,366.5C 460.868,299.545 465.201,230.212 431,158.5C 387.437,83.9599 322.271,49.1266 235.5,54C 156.345,64.9732 101.178,107.14 70,180.5C 44.6572,255.775 57.3238,323.775 108,384.5C 153.411,432.606 209.244,454.106 275.5,449C 307.067,445.367 336.4,435.367 363.5,419C 381.314,418.477 388.814,426.977 386,444.5C 382.777,450.723 377.943,455.223 371.5,458C 310.111,490.798 246.111,496.798 179.5,476C 97.0993,445.007 45.2659,386.84 24,301.5C 7.83268,211.925 32.666,136.092 98.5,74C 136.241,42.3 179.575,22.8 228.5,15.5 Z"/></g>
<g><path style="opacity:1" fill="#dedfde" d="M 167.5,158.5 C 226.168,158.333 284.834,158.5 343.5,159C 358.171,166.013 361.337,176.513 353,190.5C 350.374,193.231 347.207,195.064 343.5,196C 284.833,196.667 226.167,196.667 167.5,196C 156.44,192.058 151.94,184.224 154,172.5C 156.661,166.006 161.161,161.339 167.5,158.5 Z"/></g>
<g><path style="opacity:1" fill="#dedfde" d="M 167.5,232.5 C 226.168,232.333 284.834,232.5 343.5,233C 356.721,238.655 360.554,248.155 355,261.5C 352.011,265.491 348.178,268.324 343.5,270C 284.833,270.667 226.167,270.667 167.5,270C 154.267,264.301 150.433,254.801 156,241.5C 159.136,237.522 162.969,234.522 167.5,232.5 Z"/></g>
<g><path style="opacity:1" fill="#dedfde" d="M 167.5,306.5 C 226.168,306.333 284.834,306.5 343.5,307C 354.56,310.942 359.06,318.776 357,330.5C 354.526,336.974 350.026,341.474 343.5,344C 284.833,344.667 226.167,344.667 167.5,344C 152.829,336.987 149.663,326.487 158,312.5C 160.843,309.837 164.009,307.837 167.5,306.5 Z"/></g>
</svg>
