<?xml version="1.0" encoding="UTF-8"?>
<!DOCTYPE svg PUBLIC "-//W3C//DTD SVG 1.1//EN" "http://www.w3.org/Graphics/SVG/1.1/DTD/svg11.dtd">
<svg xmlns="http://www.w3.org/2000/svg" version="1.1" width="512px" height="512px" style="shape-rendering:geometricPrecision; text-rendering:geometricPrecision; image-rendering:optimizeQuality; fill-rule:evenodd; clip-rule:evenodd" xmlns:xlink="http://www.w3.org/1999/xlink">
<g><path style="opacity:1" fill="#dedfde" d="M 232.5,-0.5 C 247.833,-0.5 263.167,-0.5 278.5,-0.5C 358.893,9.09801 422.393,46.7647 469,112.5C 492.821,149.131 506.987,189.131 511.5,232.5C 511.5,247.833 511.5,263.167 511.5,278.5C 501.902,358.893 464.235,422.393 398.5,469C 361.869,492.821 321.869,506.987 278.5,511.5C 189.833,511.5 101.167,511.5 12.5,511.5C 10.2314,510.024 7.89805,508.524 5.5,507C 3.24806,504.264 1.24806,501.431 -0.5,498.5C -0.5,409.833 -0.5,321.167 -0.5,232.5C 9.09756,152.108 46.7642,88.6077 112.5,42C 149.131,18.1794 189.131,4.01272 232.5,-0.5 Z M 254.5,39.5 C 330.3,41.6429 390.133,73.3095 434,134.5C 471.186,192.295 480.186,254.295 461,320.5C 436.833,390 390,436.833 320.5,461C 299.641,467.365 278.307,470.699 256.5,471C 184.167,471.5 111.834,471.667 39.5,471.5C 39.0618,392.822 39.5618,314.155 41,235.5C 48.9559,168.724 80.1226,115.891 134.5,77C 170.975,53.0508 210.975,40.5508 254.5,39.5 Z"/></g>
<g><path style="opacity:1" fill="#dedfde" d="M 254.5,108.5 C 256.411,108.574 257.578,109.574 258,111.5C 269.333,146.167 280.667,180.833 292,215.5C 292.833,216.333 293.667,217.167 294.5,218C 332.772,219.482 371.105,219.982 409.5,219.5C 409.577,222.509 408.244,224.676 405.5,226C 378.167,245.667 350.833,265.333 323.5,285C 316.884,289.643 315.717,295.476 320,302.5C 331.218,335.652 341.718,368.986 351.5,402.5C 349.692,402.509 348.025,402.009 346.5,401C 319.167,381 291.833,361 264.5,341C 261.774,338.97 258.774,337.47 255.5,336.5C 252.226,337.47 249.226,338.97 246.5,341C 219.167,361 191.833,381 164.5,401C 162.975,402.009 161.308,402.509 159.5,402.5C 169.282,368.986 179.782,335.652 191,302.5C 195.283,295.476 194.116,289.643 187.5,285C 159.027,264.694 130.694,244.194 102.5,223.5C 101.571,222.311 101.238,220.978 101.5,219.5C 139.895,219.982 178.228,219.482 216.5,218C 217.333,217.167 218.167,216.333 219,215.5C 230.546,179.695 242.38,144.028 254.5,108.5 Z"/></g>
</svg>
