<?xml version="1.0" encoding="UTF-8"?>
<!DOCTYPE svg PUBLIC "-//W3C//DTD SVG 1.1//EN" "http://www.w3.org/Graphics/SVG/1.1/DTD/svg11.dtd">
<svg xmlns="http://www.w3.org/2000/svg" version="1.1" width="512px" height="512px" style="shape-rendering:geometricPrecision; text-rendering:geometricPrecision; image-rendering:optimizeQuality; fill-rule:evenodd; clip-rule:evenodd" xmlns:xlink="http://www.w3.org/1999/xlink">
<g><path style="opacity:1" fill="#dedfde" d="M 232.5,-0.5 C 247.833,-0.5 263.167,-0.5 278.5,-0.5C 358.893,9.09801 422.393,46.7647 469,112.5C 492.821,149.131 506.987,189.131 511.5,232.5C 511.5,247.833 511.5,263.167 511.5,278.5C 501.902,358.893 464.235,422.393 398.5,469C 361.869,492.821 321.869,506.987 278.5,511.5C 189.833,511.5 101.167,511.5 12.5,511.5C 10.2314,510.024 7.89805,508.524 5.5,507C 3.24806,504.264 1.24806,501.431 -0.5,498.5C -0.5,409.833 -0.5,321.167 -0.5,232.5C 9.09756,152.108 46.7642,88.6077 112.5,42C 149.131,18.1794 189.131,4.01272 232.5,-0.5 Z M 254.5,39.5 C 330.3,41.6429 390.133,73.3095 434,134.5C 471.186,192.295 480.186,254.295 461,320.5C 436.833,390 390,436.833 320.5,461C 299.641,467.365 278.307,470.699 256.5,471C 184.167,471.5 111.834,471.667 39.5,471.5C 39.0618,392.822 39.5618,314.155 41,235.5C 48.9559,168.724 80.1226,115.891 134.5,77C 170.975,53.0508 210.975,40.5508 254.5,39.5 Z"/></g>
<g><path style="opacity:1" fill="#dedfde" d="M 248.5,127.5 C 273.288,126.45 283.788,138.117 280,162.5C 272.38,177.488 260.547,182.321 244.5,177C 231.3,169.423 226.8,158.256 231,143.5C 234.503,135.492 240.336,130.159 248.5,127.5 Z"/></g>
<g><path style="opacity:1" fill="#dedfde" d="M 252.5,203.5 C 267.354,203.335 276.854,210.335 281,224.5C 281.667,270.833 281.667,317.167 281,363.5C 275.917,379.301 265.084,385.801 248.5,383C 238.557,380.058 232.391,373.558 230,363.5C 229.333,317.167 229.333,270.833 230,224.5C 233.231,212.764 240.731,205.764 252.5,203.5 Z"/></g>
</svg>
