<?xml version="1.0" encoding="UTF-8"?>
<!DOCTYPE svg PUBLIC "-//W3C//DTD SVG 1.1//EN" "http://www.w3.org/Graphics/SVG/1.1/DTD/svg11.dtd">
<svg xmlns="http://www.w3.org/2000/svg" version="1.1" width="512px" height="512px" style="shape-rendering:geometricPrecision; text-rendering:geometricPrecision; image-rendering:optimizeQuality; fill-rule:evenodd; clip-rule:evenodd" xmlns:xlink="http://www.w3.org/1999/xlink">
<g><path style="opacity:1" fill="#dedfde" d="M 232.5,-0.5 C 247.833,-0.5 263.167,-0.5 278.5,-0.5C 358.893,9.09801 422.393,46.7647 469,112.5C 492.821,149.131 506.987,189.131 511.5,232.5C 511.5,247.833 511.5,263.167 511.5,278.5C 501.902,358.893 464.235,422.393 398.5,469C 361.869,492.821 321.869,506.987 278.5,511.5C 189.833,511.5 101.167,511.5 12.5,511.5C 10.2314,510.024 7.89805,508.524 5.5,507C 3.24806,504.264 1.24806,501.431 -0.5,498.5C -0.5,409.833 -0.5,321.167 -0.5,232.5C 9.09756,152.108 46.7642,88.6077 112.5,42C 149.131,18.1794 189.131,4.01272 232.5,-0.5 Z M 254.5,39.5 C 330.3,41.6429 390.133,73.3095 434,134.5C 471.186,192.295 480.186,254.295 461,320.5C 436.833,390 390,436.833 320.5,461C 299.641,467.365 278.307,470.699 256.5,471C 184.167,471.5 111.834,471.667 39.5,471.5C 39.0618,392.822 39.5618,314.155 41,235.5C 48.9559,168.724 80.1226,115.891 134.5,77C 170.975,53.0508 210.975,40.5508 254.5,39.5 Z M 229.5,136.5 C 266.569,134.094 289.736,150.761 299,186.5C 302.173,213.648 292.339,234.482 269.5,249C 241.358,262.236 216.191,258.069 194,236.5C 181.032,220.289 176.698,201.956 181,181.5C 188.411,156.918 204.578,141.918 229.5,136.5 Z"/></g>
<g><path style="opacity:1" fill="#dedfde" d="M 226.5,115.5 C 267.575,112.111 297.075,128.778 315,165.5C 328.617,207.985 317.117,241.819 280.5,267C 240.125,286.357 204.958,279.523 175,246.5C 152.055,213.753 151.721,180.753 174,147.5C 187.548,130.311 205.048,119.645 226.5,115.5 Z M 229.5,136.5 C 204.578,141.918 188.411,156.918 181,181.5C 176.698,201.956 181.032,220.289 194,236.5C 216.191,258.069 241.358,262.236 269.5,249C 292.339,234.482 302.173,213.648 299,186.5C 289.736,150.761 266.569,134.094 229.5,136.5 Z"/></g>
<g><path style="opacity:1" fill="#dedfde" d="M 163.5,257.5 C 174.49,255.992 179.324,260.658 178,271.5C 170.721,278.779 163.387,286.113 156,293.5C 138.101,315.767 130.435,341.1 133,369.5C 133.465,370.931 134.299,372.097 135.5,373C 170.083,374.16 204.75,374.66 239.5,374.5C 274.25,374.66 308.917,374.16 343.5,373C 346.212,369.866 347.545,366.2 347.5,362C 346.654,336.456 338.487,313.623 323,293.5C 315.613,286.113 308.279,278.779 301,271.5C 300.538,258.307 306.371,254.474 318.5,260C 353.148,288.579 369.648,325.412 368,370.5C 365.379,383.122 357.879,391.289 345.5,395C 274.833,395.667 204.167,395.667 133.5,395C 121.121,391.289 113.621,383.122 111,370.5C 109.111,323.621 126.611,285.954 163.5,257.5 Z"/></g>
</svg>
